<svg width="39" height="38" viewBox="0 0 39 38" fill="none" xmlns="http://www.w3.org/2000/svg">
<g clip-path="url(#clip0_88_3440)">
<path d="M8.44926 32.5162C5.85581 32.5162 3.82966 31.6214 2.37084 29.8318C0.912028 27.961 0.182617 25.1954 0.182617 21.535C0.182617 17.7119 1.0336 14.0515 2.73555 10.5537C4.51855 7.056 7.03097 3.59894 10.2728 0.182566C10.3539 0.10122 10.4754 0.0605469 10.6375 0.0605469C10.8806 0.0605469 11.0427 0.182561 11.1238 0.42659C11.2859 0.589273 11.3263 0.792629 11.2454 1.03666C9.30026 3.63962 7.96299 6.16123 7.23358 8.6015C6.58522 10.9604 6.26103 13.604 6.26103 16.5324C6.26103 18.7286 6.5447 20.4368 7.11201 21.6569C7.67933 22.8771 8.44926 23.9752 9.42179 24.9514L4.80221 25.8055C4.72117 24.4226 5.08588 23.3651 5.89633 22.6331C6.78783 21.901 7.92247 21.535 9.30026 21.535C11.0022 21.535 12.2989 22.023 13.1904 22.9991C14.163 23.9752 14.6493 25.3173 14.6493 27.0255C14.6493 28.8151 14.0819 30.1979 12.9473 31.174C11.8937 32.0688 10.3944 32.5162 8.44926 32.5162ZM27.1708 32.5162C24.5773 32.5162 22.5512 31.6214 21.0924 29.8318C19.7146 27.961 19.0257 25.1954 19.0257 21.535C19.0257 17.6305 19.8767 13.9294 21.5786 10.4317C23.2806 6.93398 25.793 3.5176 29.1159 0.182566C29.1969 0.10122 29.3185 0.0605469 29.4806 0.0605469C29.7237 0.0605469 29.8858 0.182561 29.9669 0.42659C30.1289 0.589273 30.1695 0.792629 30.0884 1.03666C28.1433 3.63962 26.8061 6.16123 26.0767 8.6015C25.4283 10.9604 25.1041 13.604 25.1041 16.5324C25.1041 18.7286 25.3473 20.4775 25.8335 21.779C26.4009 22.9991 27.1708 24.0565 28.1433 24.9514L23.6453 25.8055C23.5642 24.4226 23.9289 23.3651 24.7394 22.6331C25.5499 21.901 26.6845 21.535 28.1433 21.535C29.8453 21.535 31.142 22.023 32.0335 22.9991C33.0061 23.9752 33.4923 25.3173 33.4923 27.0255C33.4923 28.8151 32.9251 30.1979 31.7904 31.174C30.7368 32.0688 29.1969 32.5162 27.1708 32.5162Z" fill="#313131"/>
</g>
<defs>
<clipPath id="clip0_88_3440">
<rect width="38.4343" height="37.5802" fill="white" transform="translate(0.182617 0.0605469)"/>
</clipPath>
</defs>
</svg>
